{"title":"Mere Yaar Kaminey 2014 [DvDrip 720p] [Movies2Fun]","uid":9924547,"size":1698178470,"categoryP":"video","categoryS":"hd___movies","magnet":"?xt=urn:btih:f2494563cd9a3b97d93fa1d5f75209531c95db4b&amp;dn=Mere+Yaar+Kaminey+2014+%5BDvDrip+720p%5D+%5BMovies2Fun%5D&amp;tr=udp%3A%2F%2Ftracker.openbittorrent.com%3A80&amp;tr=udp%3A%2F%2Fopen.demonii.com%3A1337&amp;tr=udp%3A%2F%2Ftracker.coppersurfer.tk%3A6969&amp;tr=udp%3A%2F%2Fexodus.desync.com%3A6969","seeders":1,"leechers":3,"uploader":"taztoor","files":1,"time":1397002439,"description":"Download Mere Yaar Kaminey 2014 In HD 720p\n\nGeneral\nFormat : MPEG-4\nFormat profile : Base Media / Version 2\nCodec ID : mp42\nFile size : 1.58 GiB\nDuration : 2h 9mn\nOverall bit rate mode : Variable\nOverall bit rate : 1 751 Kbps\nEncoded date : UTC 2014-02-03 13:22:52\nTagged date : UTC 2014-02-03 13:22:52\n\nVideo\nID : 1\nFormat : AVC\nFormat/Info : Advanced Video Codec\nFormat profile : &lt;a class=&quot;__cf_email__&quot; href=&quot;/cdn-cgi/l/email-protection&quot; data-cfemail=&quot;6d25040a052d215e435c&quot;&gt;[email&amp;#160;protected]&lt;/a&gt;&lt;script cf-hash='f9e31' type=&quot;text/javascript&quot;&gt;\n/* &lt;![CDATA[ */!function(){try{var t=&quot;currentScript&quot;in document?document.currentScript:function(){for(var t=document.getElementsByTagName(&quot;script&quot;),e=t.length;e--;)if(t[e].getAttribute(&quot;cf-hash&quot;))return t[e]}();if(t&amp;&amp;t.previousSibling){var e,r,n,i,c=t.previousSibling,a=c.getAttribute(&quot;data-cfemail&quot;);if(a){for(e=&quot;&quot;,r=parseInt(a.substr(0,2),16),n=2;a.length-n;n+=2)i=parseInt(a.substr(n,2),16)^r,e+=String.fromCharCode(i);e=document.createTextNode(e),c.parentNode.replaceChild(e,c)}}}catch(u){}}();/* ]]&gt; */&lt;/script&gt;\nFormat settings, CABAC : Yes\nFormat settings, ReFrames : 1 frame\nFormat settings, GOP : M=1, N=60\nCodec ID : avc1\nCodec ID/Info : Advanced Video Coding\nDuration : 2h 9mn\nBit rate : 1 556 Kbps\nMaximum bit rate : 6 132 Kbps\nWidth : 1 280 pixels\nHeight : 720 pixels\nDisplay aspect ratio : 16:9\nFrame rate mode : Constant\nFrame rate : 25.000 fps\nColor space : YUV\nChroma subsampling : 4:2:0\nBit depth : 8 bits\nScan type : Progressive\nBits/(Pixel*Frame) : 0.068\nStream size : 1.41 GiB (89%)\nTagged date : UTC 2014-02-03 13:30:30\n\nAudio\nID : 2\nFormat : AAC\nFormat/Info : Advanced Audio Codec\nFormat profile : LC\nCodec ID : 40\nDuration : 2h 9mn\nBit rate mode : Variable\nBit rate : 192 Kbps\nMaximum bit rate : 202 Kbps\nChannel count : 2 channels\nChannel positions : Front: L R\nSampling rate : 44.1 KHz\nCompression mode : Lossy\nStream size : 178 MiB (11%)\nTitle : IsoMedia File Produced by Google, 5-11-2011\nEncoded date : UTC 2014-02-03 13:27:22\nTagged date : UTC 2014-02-03 13:30:30","torrent":{"xt":"urn:btih:f2494563cd9a3b97d93fa1d5f75209531c95db4b","amp;dn":"Mere+Yaar+Kaminey+2014+%5BDvDrip+720p%5D+%5BMovies2Fun%5D","amp;tr":["udp%3A%2F%2Ftracker.openbittorrent.com%3A80","udp%3A%2F%2Fopen.demonii.com%3A1337","udp%3A%2F%2Ftracker.coppersurfer.tk%3A6969","udp%3A%2F%2Fexodus.desync.com%3A6969"],"infoHash":"f2494563cd9a3b97d93fa1d5f75209531c95db4b","infoHashBuffer":{"type":"Buffer","data":[242,73,69,99,205,154,59,151,217,63,161,213,247,82,9,83,28,149,219,75]},"announce":[],"urlList":[]}}